<?xml version="1.0" standalone="no"?>
<!DOCTYPE svg PUBLIC "-//W3C//DTD SVG 20010904//EN"
 "http://www.w3.org/TR/2001/REC-SVG-20010904/DTD/svg10.dtd">
<svg version="1.0" xmlns="http://www.w3.org/2000/svg"
 width="192.000000pt" height="192.000000pt" viewBox="0 0 192.000000 192.000000"
 preserveAspectRatio="xMidYMid meet">
<metadata>
Created by potrace 1.15, written by Peter Selinger 2001-2017
</metadata>
<g transform="translate(0.000000,192.000000) scale(0.100000,-0.100000)"
fill="#e61919" stroke="none">
<path d="M0 960 l0 -960 960 0 960 0 0 960 0 960 -960 0 -960 0 0 -960z m916
337 l141 -138 48 25 c26 14 56 26 67 26 15 0 17 5 12 25 -9 37 6 31 63 -27 54
-56 68 -85 58 -119 l-7 -21 -19 21 c-15 16 -24 19 -38 12 -33 -18 -43 -40 -42
-96 0 -42 -11 -86 -46 -183 -25 -70 -47 -129 -49 -131 -2 -2 -22 4 -46 14 -24
9 -50 20 -58 23 -8 3 -3 -8 11 -24 15 -16 32 -39 38 -51 12 -24 15 -93 4 -93
-4 0 -26 18 -49 41 -40 39 -42 40 -49 19 -5 -15 -1 -28 13 -43 29 -32 42 -62
42 -95 0 -44 -11 -46 -52 -5 -21 20 -39 35 -41 32 -2 -2 -16 -39 -32 -82 -15
-42 -31 -77 -36 -77 -14 0 -39 57 -39 87 0 15 20 81 45 147 l45 119 -40 43
c-34 37 -40 50 -40 89 0 25 2 45 5 45 2 0 28 -9 57 -21 l53 -20 -61 63 c-34
35 -67 73 -73 85 -14 27 -14 70 -1 78 5 3 73 -56 150 -131 120 -118 140 -133
140 -112 0 20 -33 58 -137 160 -76 74 -157 152 -179 172 -23 20 -49 52 -58 70
-16 34 -21 87 -10 99 4 3 97 -81 207 -188 110 -107 204 -195 209 -195 32 0
-33 74 -258 295 l-255 250 1 55 0 55 83 -80 c45 -44 145 -142 223 -218z"/>
</g>
</svg>
